<mxfile host="65bd71144e">
    <diagram id="xUTLwPF7feOlR4_8fToR" name="Page-1">
        <mxGraphModel dx="2493" dy="418" grid="1" gridSize="10" guides="1" tooltips="1" connect="1" arrows="1" fold="1" page="1" pageScale="1" pageWidth="827" pageHeight="1169" math="0" shadow="0">
            <root>
                <mxCell id="0"/>
                <mxCell id="1" parent="0"/>
                <mxCell id="25" value="" style="rounded=0;whiteSpace=wrap;html=1;dashed=1;strokeColor=#0000CC;fontColor=#0000CC;fillColor=#E6E6E6;movable=0;resizable=0;rotatable=0;deletable=0;editable=0;connectable=0;" parent="1" vertex="1">
                    <mxGeometry x="-380" y="10" width="1180" height="950" as="geometry"/>
                </mxCell>
                <mxCell id="3" value="Public subnet -&amp;nbsp;public-subnet-alb -b(192.168.11.0/24)" style="points=[[0,0],[0.25,0],[0.5,0],[0.75,0],[1,0],[1,0.25],[1,0.5],[1,0.75],[1,1],[0.75,1],[0.5,1],[0.25,1],[0,1],[0,0.75],[0,0.5],[0,0.25]];outlineConnect=0;gradientColor=none;html=1;whiteSpace=wrap;fontSize=12;fontStyle=0;container=1;pointerEvents=0;collapsible=0;recursiveResize=0;shape=mxgraph.aws4.group;grIcon=mxgraph.aws4.group_security_group;grStroke=0;strokeColor=#248814;fillColor=#E9F3E6;verticalAlign=top;align=left;spacingLeft=30;fontColor=#248814;dashed=0;" parent="1" vertex="1">
                    <mxGeometry x="470" y="62.21" width="220.5" height="157.79" as="geometry"/>
                </mxCell>
                <mxCell id="4" value="Private subnet -&amp;nbsp;priv-subnet-rds -b(192.168.4.0/24)" style="points=[[0,0],[0.25,0],[0.5,0],[0.75,0],[1,0],[1,0.25],[1,0.5],[1,0.75],[1,1],[0.75,1],[0.5,1],[0.25,1],[0,1],[0,0.75],[0,0.5],[0,0.25]];outlineConnect=0;gradientColor=none;html=1;whiteSpace=wrap;fontSize=12;fontStyle=0;container=1;pointerEvents=0;collapsible=0;recursiveResize=0;shape=mxgraph.aws4.group;grIcon=mxgraph.aws4.group_security_group;grStroke=0;strokeColor=#147EBA;fillColor=#E6F2F8;verticalAlign=top;align=left;spacingLeft=30;fontColor=#147EBA;dashed=0;" parent="1" vertex="1">
                    <mxGeometry x="460" y="430" width="230" height="200" as="geometry"/>
                </mxCell>
                <mxCell id="32" value="" style="group;movable=0;resizable=0;rotatable=0;deletable=0;editable=0;connectable=0;" parent="1" vertex="1" connectable="0">
                    <mxGeometry x="-360" y="30" width="1150" height="920" as="geometry"/>
                </mxCell>
                <mxCell id="26" value="&lt;font color=&quot;#000000&quot;&gt;VPC -&amp;nbsp; vpc-workshop (192.168.0.0/16)&lt;/font&gt;" style="points=[[0,0],[0.25,0],[0.5,0],[0.75,0],[1,0],[1,0.25],[1,0.5],[1,0.75],[1,1],[0.75,1],[0.5,1],[0.25,1],[0,1],[0,0.75],[0,0.5],[0,0.25]];outlineConnect=0;gradientColor=none;html=1;whiteSpace=wrap;fontSize=12;fontStyle=0;container=1;pointerEvents=0;collapsible=0;recursiveResize=0;shape=mxgraph.aws4.group;grIcon=mxgraph.aws4.group_vpc;strokeColor=#248814;fillColor=none;verticalAlign=top;align=left;spacingLeft=30;fontColor=#AAB7B8;dashed=0;" parent="32" vertex="1">
                    <mxGeometry width="1150.0000000000005" height="919.9999999999999" as="geometry"/>
                </mxCell>
                <mxCell id="39" value="&lt;h1&gt;Atividades&lt;/h1&gt;&lt;p&gt;&lt;/p&gt;&lt;ul&gt;&lt;li&gt;Criar VPC&lt;/li&gt;&lt;li&gt;Criar Security Groups&lt;/li&gt;&lt;li&gt;Criar SSH Key Pair&lt;/li&gt;&lt;li&gt;Criar bastion-subnet&lt;/li&gt;&lt;ul&gt;&lt;li&gt;IGW, Route Table&lt;/li&gt;&lt;/ul&gt;&lt;li&gt;Criar ec2 bastion-host&lt;/li&gt;&lt;li&gt;Criar public-subnet-alb&lt;/li&gt;&lt;ul&gt;&lt;li&gt;IGW, Route Table&lt;/li&gt;&lt;/ul&gt;&lt;li&gt;Criar o Application Load Balancer ALB-WP&lt;/li&gt;&lt;ul&gt;&lt;li&gt;Target: priv-subnet-wp, Listener 80&lt;/li&gt;&lt;/ul&gt;&lt;li&gt;Criar priv-subnet-wp&lt;/li&gt;&lt;ul&gt;&lt;li&gt;NAT Gateway, Route Table&lt;/li&gt;&lt;/ul&gt;&lt;li&gt;Criar Auto Scale Group ASG-WP-APP&lt;/li&gt;&lt;ul&gt;&lt;li&gt;Launch Template&lt;/li&gt;&lt;/ul&gt;&lt;li&gt;Criar subnet priv-subnet-rds-a e b (DB subnet group)&lt;/li&gt;&lt;ul&gt;&lt;li&gt;Sem NAT Gateway&lt;/li&gt;&lt;/ul&gt;&lt;li&gt;Criar o RDS MySQL&lt;/li&gt;&lt;ul&gt;&lt;li&gt;Single DB, Ativar Automated Backup&lt;/li&gt;&lt;/ul&gt;&lt;li&gt;Crar RDS Read Replica&lt;/li&gt;&lt;/ul&gt;&lt;p&gt;&lt;/p&gt;" style="text;html=1;strokeColor=none;fillColor=none;spacing=5;spacingTop=-20;whiteSpace=wrap;overflow=hidden;rounded=0;fontColor=#000000;" parent="26" vertex="1">
                    <mxGeometry x="22" y="210" width="488" height="680" as="geometry"/>
                </mxCell>
                <mxCell id="40" value="Private subnet -&amp;nbsp;priv-subnet-rds -a (192.168.3.0/24)" style="points=[[0,0],[0.25,0],[0.5,0],[0.75,0],[1,0],[1,0.25],[1,0.5],[1,0.75],[1,1],[0.75,1],[0.5,1],[0.25,1],[0,1],[0,0.75],[0,0.5],[0,0.25]];outlineConnect=0;gradientColor=none;html=1;whiteSpace=wrap;fontSize=12;fontStyle=0;container=1;pointerEvents=0;collapsible=0;recursiveResize=0;shape=mxgraph.aws4.group;grIcon=mxgraph.aws4.group_security_group;grStroke=0;strokeColor=#147EBA;fillColor=#E6F2F8;verticalAlign=top;align=left;spacingLeft=30;fontColor=#147EBA;dashed=0;" parent="26" vertex="1">
                    <mxGeometry x="570" y="400" width="230" height="200" as="geometry"/>
                </mxCell>
                <mxCell id="41" value="&lt;div style=&quot;color: rgb(204, 204, 204); background-color: rgb(31, 31, 31); font-family: Consolas, &amp;quot;Courier New&amp;quot;, monospace; font-size: 14px; line-height: 19px;&quot;&gt;&lt;span style=&quot;color: #4fc1ff;&quot;&gt;WP-DB&lt;/span&gt;&lt;/div&gt;" style="outlineConnect=0;dashed=0;verticalLabelPosition=bottom;verticalAlign=top;align=center;html=1;shape=mxgraph.aws3.rds;fillColor=#2E73B8;gradientColor=none;" parent="26" vertex="1">
                    <mxGeometry x="678" y="474" width="72" height="81" as="geometry"/>
                </mxCell>
                <mxCell id="43" value="" style="rounded=0;whiteSpace=wrap;html=1;fontColor=#000000;fillColor=none;dashed=1;strokeColor=#0000FF;" parent="26" vertex="1">
                    <mxGeometry x="654" y="450" width="366" height="140" as="geometry"/>
                </mxCell>
                <mxCell id="45" value="WP-DB-READ" style="outlineConnect=0;dashed=0;verticalLabelPosition=bottom;verticalAlign=top;align=center;html=1;shape=mxgraph.aws3.rds_db_instance_read_replica;fillColor=#2E73B8;gradientColor=none;strokeColor=#0000FF;fontColor=#000000;" parent="32" vertex="1">
                    <mxGeometry x="890" y="474" width="49.5" height="66" as="geometry"/>
                </mxCell>
                <mxCell id="2" value="&lt;div style=&quot;color: rgb(204, 204, 204); background-color: rgb(31, 31, 31); font-family: Consolas, &amp;quot;Courier New&amp;quot;, monospace; font-size: 14px; line-height: 19px;&quot;&gt;ALB-WP&lt;/div&gt;" style="outlineConnect=0;dashed=0;verticalLabelPosition=bottom;verticalAlign=top;align=center;html=1;shape=mxgraph.aws3.application_load_balancer;fillColor=#F58536;gradientColor=none;" parent="32" vertex="1">
                    <mxGeometry x="850" y="78.99000000000001" width="69" height="72" as="geometry"/>
                </mxCell>
                <mxCell id="7" value="Private subnet -&amp;nbsp;priv-subnet-wp (192.168.2.0/24)" style="points=[[0,0],[0.25,0],[0.5,0],[0.75,0],[1,0],[1,0.25],[1,0.5],[1,0.75],[1,1],[0.75,1],[0.5,1],[0.25,1],[0,1],[0,0.75],[0,0.5],[0,0.25]];outlineConnect=0;gradientColor=none;html=1;whiteSpace=wrap;fontSize=12;fontStyle=0;container=1;pointerEvents=0;collapsible=0;recursiveResize=0;shape=mxgraph.aws4.group;grIcon=mxgraph.aws4.group_security_group;grStroke=0;strokeColor=#147EBA;fillColor=#E6F2F8;verticalAlign=top;align=left;spacingLeft=30;fontColor=#147EBA;dashed=0;" parent="1" vertex="1">
                    <mxGeometry x="470" y="230" width="220" height="183.05" as="geometry"/>
                </mxCell>
                <mxCell id="34" value="&lt;b&gt;ASG-WP-APP&lt;/b&gt;" style="sketch=0;points=[[0,0,0],[0.25,0,0],[0.5,0,0],[0.75,0,0],[1,0,0],[0,1,0],[0.25,1,0],[0.5,1,0],[0.75,1,0],[1,1,0],[0,0.25,0],[0,0.5,0],[0,0.75,0],[1,0.25,0],[1,0.5,0],[1,0.75,0]];outlineConnect=0;fontColor=#232F3E;gradientColor=#F78E04;gradientDirection=north;fillColor=#D05C17;strokeColor=#ffffff;dashed=0;verticalLabelPosition=bottom;verticalAlign=top;align=center;html=1;fontSize=12;fontStyle=0;aspect=fixed;shape=mxgraph.aws4.resourceIcon;resIcon=mxgraph.aws4.auto_scaling2;" parent="7" vertex="1">
                    <mxGeometry x="67" y="53" width="78" height="78" as="geometry"/>
                </mxCell>
                <mxCell id="27" value="Security group&#10;&#10;allow-ssh&#10;allow-https&#10;allow-http&#10;allow-mysql&#10;allow-icmp" style="fillColor=none;strokeColor=#DD3522;verticalAlign=top;fontStyle=0;fontColor=#DD3522;" parent="1" vertex="1">
                    <mxGeometry x="-339.99525773195865" y="70.00203389830509" width="140.7216494845361" height="134.4067796610169" as="geometry"/>
                </mxCell>
                <mxCell id="35" value="Public subnet -&amp;nbsp;bastion-subnet (192.168.20.0/24)" style="points=[[0,0],[0.25,0],[0.5,0],[0.75,0],[1,0],[1,0.25],[1,0.5],[1,0.75],[1,1],[0.75,1],[0.5,1],[0.25,1],[0,1],[0,0.75],[0,0.5],[0,0.25]];outlineConnect=0;gradientColor=none;html=1;whiteSpace=wrap;fontSize=12;fontStyle=0;container=1;pointerEvents=0;collapsible=0;recursiveResize=0;shape=mxgraph.aws4.group;grIcon=mxgraph.aws4.group_security_group;grStroke=0;strokeColor=#248814;fillColor=#E9F3E6;verticalAlign=top;align=left;spacingLeft=30;fontColor=#248814;dashed=0;" parent="1" vertex="1">
                    <mxGeometry x="-40" y="66.1" width="220.5" height="157.79" as="geometry"/>
                </mxCell>
                <mxCell id="37" value="bastion-host" style="outlineConnect=0;dashed=0;verticalLabelPosition=bottom;verticalAlign=top;align=center;html=1;shape=mxgraph.aws3.ec2;fillColor=#F58534;gradientColor=none;fontColor=#000000;" parent="35" vertex="1">
                    <mxGeometry x="72" y="38.78999999999999" width="76.5" height="93" as="geometry"/>
                </mxCell>
                <mxCell id="46" value="Public subnet -&amp;nbsp;public-subnet-alb-a (192.168.10.0/24)" style="points=[[0,0],[0.25,0],[0.5,0],[0.75,0],[1,0],[1,0.25],[1,0.5],[1,0.75],[1,1],[0.75,1],[0.5,1],[0.25,1],[0,1],[0,0.75],[0,0.5],[0,0.25]];outlineConnect=0;gradientColor=none;html=1;whiteSpace=wrap;fontSize=12;fontStyle=0;container=1;pointerEvents=0;collapsible=0;recursiveResize=0;shape=mxgraph.aws4.group;grIcon=mxgraph.aws4.group_security_group;grStroke=0;strokeColor=#248814;fillColor=#E9F3E6;verticalAlign=top;align=left;spacingLeft=30;fontColor=#248814;dashed=0;" parent="1" vertex="1">
                    <mxGeometry x="239.5" y="62.21" width="220.5" height="157.79" as="geometry"/>
                </mxCell>
                <mxCell id="49" value="" style="rounded=0;whiteSpace=wrap;html=1;fontColor=#000000;fillColor=none;dashed=1;strokeColor=#FF9C07;" parent="1" vertex="1">
                    <mxGeometry x="304" y="100" width="346" height="110" as="geometry"/>
                </mxCell>
            </root>
        </mxGraphModel>
    </diagram>
</mxfile>